<?xml version="1.0" encoding="utf-8"?>
<!-- Generator: Adobe Illustrator 22.0.0, SVG Export Plug-In . SVG Version: 6.00 Build 0)  -->
<svg version="1.1" id="Layer_1" xmlns="http://www.w3.org/2000/svg" xmlns:xlink="http://www.w3.org/1999/xlink" x="0px" y="0px"
	 viewBox="0 0 64 64" style="enable-background:new 0 0 64 64;" xml:space="preserve">
<g>
	<path class="st0" d="M41,21.6c0,5-4,9-9,9s-9-4-9-9s9-16.9,9-16.9S41,16.6,41,21.6z"/>
	<path class="st1" d="M44,42.4C44,42.4,43.9,42.4,44,42.4c0-0.1,0-0.2,0-0.2c0,0,0-0.1,0-0.1c0,0,0-0.1,0-0.1c0,0,0-0.1,0-0.1
		c0,0,0,0,0-0.1c0,0,0-0.1,0-0.1c0,0,0,0,0-0.1c0,0,0-0.1-0.1-0.1c0,0,0,0,0-0.1c0,0,0,0-0.1-0.1c0,0,0,0-0.1-0.1c0,0,0,0-0.1-0.1
		c0,0,0,0-0.1-0.1c0,0,0,0,0,0c0,0-0.1-0.1-0.1-0.1c0,0,0,0,0,0l-10.5-6.1c-0.4-0.3-1-0.3-1.4,0l-10.5,6.1c0,0,0,0,0,0c0,0,0,0,0,0
		l0,0c0,0,0,0-0.1,0c0,0-0.1,0-0.1,0.1c0,0,0,0-0.1,0.1c0,0-0.1,0-0.1,0.1c0,0,0,0-0.1,0.1c0,0,0,0.1-0.1,0.1c0,0,0,0,0,0.1
		c0,0,0,0.1-0.1,0.1c0,0,0,0,0,0.1c0,0,0,0.1,0,0.1c0,0,0,0.1,0,0.1c0,0,0,0.1,0,0.1c0,0,0,0.1,0,0.1c0,0,0,0.1,0,0.1
		c0,0,0,0.1,0,0.1c0,0,0,0.1,0,0.1L20,54c0,0.5,0.3,1,0.7,1.2l10.5,6.1l0,0c0.1,0.1,0.2,0.1,0.3,0.1c0.1,0,0.3,0.1,0.4,0.1
		c0.1,0,0.1,0,0.2,0c0,0,0,0,0.1,0c0,0,0.1,0,0.1,0c0,0,0,0,0.1,0c0,0,0.1,0,0.1,0c0,0,0,0,0.1,0c0,0,0.1,0,0.1,0c0,0,0,0,0,0
		c0,0,0,0,0,0l10.5-6.1c0.4-0.3,0.7-0.7,0.7-1.2L44,42.4C44,42.5,44,42.5,44,42.4C44,42.4,44,42.4,44,42.4z M32,38l7.7,4.5L32,46.9
		l-0.5-0.3l-7.2-4.1L32,38z M22.9,44.9l7.7,4.5l0,8.3l-7.7-4.5L22.9,44.9z M41.1,53.2l-7.6,4.4l0-8.3l7.6-4.4L41.1,53.2z"/>
</g>
</svg>
