<?xml version="1.0" encoding="utf-8"?>
<!-- Generator: Adobe Illustrator 22.0.0, SVG Export Plug-In . SVG Version: 6.00 Build 0)  -->
<svg version="1.1" id="Layer_1" xmlns="http://www.w3.org/2000/svg" xmlns:xlink="http://www.w3.org/1999/xlink" x="0px" y="0px"
	 viewBox="0 0 64 64" style="enable-background:new 0 0 64 64;" xml:space="preserve">
<path class="st0" d="M20.9,53.6h21.4c2.1,0,3.5-1.5,3.7-3.6l4.7-36c5.1,0,6.1,0.6,6.1,5.2l0,13.7c0,2.9,3.6,2.9,3.6,0l0-13.7
	c0-8.3-3.8-8.8-10.2-8.8H8.3c-1.8,0-1.8,0-1.8,1.8c0,0.9,6.2,1.1,7.2,9L17.3,50C17.5,52.1,18.8,53.6,20.9,53.6z M29.8,48.2
	c-1.8,0-1.8,0-1.8-1.8s0-1.8,1.8-1.8h3.6c1.8,0,1.8,0,1.8,1.8s0,1.8-1.8,1.8H29.8z M29.8,41c-1.8,0-1.8,0-1.8-1.8
	c0-1.8,0-1.8,1.8-1.8h3.6c1.8,0,1.8,0,1.8,1.8c0,1.8,0,1.8-1.8,1.8H29.8z M29.8,28.4h3.6c1.8,0,1.8,0,1.8-1.8c0-1.8,0-1.8-1.8-1.8
	h-3.6c-1.8,0-1.8,0-1.8,1.8C28.1,28.4,28.1,28.4,29.8,28.4z M18.6,32l-1.4-11.2c-0.3-2.4-1.1-4.8-2.1-6.8h32l-2.3,18H18.6z
	 M29.8,21.2h3.6c1.8,0,1.8,0,1.8-1.8c0-1.8,0-1.8-1.8-1.8h-3.6c-1.8,0-1.8,0-1.8,1.8C28.1,21.2,28.1,21.2,29.8,21.2z"/>
</svg>
