<?xml version="1.0" encoding="utf-8"?>
<!-- Generator: Adobe Illustrator 22.0.0, SVG Export Plug-In . SVG Version: 6.00 Build 0)  -->
<svg version="1.1" id="Layer_1" xmlns="http://www.w3.org/2000/svg" xmlns:xlink="http://www.w3.org/1999/xlink" x="0px" y="0px"
	 viewBox="0 0 64 64" style="enable-background:new 0 0 64 64;" xml:space="preserve">
<path class="st0" d="M57.5,52.2l-3.6-26.9c-0.4-2.9-2.8-5-5.7-5h-7.1c0.7-1.4,1.2-3,1.2-4.7C42.3,10,37.7,5.3,32,5.3
	S21.7,9.9,21.7,15.6c0,1.7,0.4,3.3,1.2,4.7h-7.1c-2.9,0-5.3,2.1-5.7,5L6.5,52.2c-0.4,3.4,2.2,6.5,5.7,6.5h39.6
	C55.3,58.7,58,55.6,57.5,52.2z M32,11.1c2.5,0,4.5,2,4.5,4.5s-2,4.5-4.5,4.5s-4.5-2-4.5-4.5S29.5,11.1,32,11.1z"/>
</svg>
